<svg xmlns="http://www.w3.org/2000/svg" width="256" height="256" viewBox="0 0 256 256" fill="none">
<rect width="256" height="256" fill="#FEFFFE"/>
<path d="M 212.7,70.12 H 202.01 L 222.44,34.3 C 231.03,32.71 235.07,25.19 234.41,18.62 C 233.59,10.18 226.41,5 218.91,5 C 209.19,5 201.16,13.61 202.85,24.41 L 202.94,24.91 L 176.88,69.46 H 141.12 L 141.11,69.46 H 37.92 C 24.81,69.46 17.62,82.61 22.62,93.42 L 23.01,94.19 L 112.71,241.49 C.46 H 141.12 L 141.11,69.46 H 37.92 C 24.81,69.46 17.62,82.61 22.62,93.42 L 23.01,94.19 L 112.71,241.49 C 120.19,253.68 137.11,252.26 143.61,241.21 L 227.11,94.65 C 233.43,83.95 225.41,70.12 212.7,70.12 Z" fill="url(#paint0_linear_68_1118)"/>
<path d="M 141.11,69.46 L 75.92,182.82 L 22.62,93.42 C 17.62,82.61 24.81,69.46 37.92,69.46 H 141.11 Z" fill="url(#paint1_linear_68_1118)"/>
<path d="M 212.7,70.12 H 201.31 L 222.44,33.62 C 230.75,32.31 235.16,24.86 234.41,18.22 C 233.46,9.82 226.26,5 219.12,5 C 209.51,5 202.26,13.49 203.49,23.64 L 203.62,24.41 L 176.88,69.46 H 141.12 L 76.22,183.16 L 97.71,217.16 L 138.72,145.27 C 149.92,126.51 179.88,127.66 191.48,150.13 L 192.63,155.06 L 226.71,94.65 C 233.03,83.95 225.41,70.12 212.7,70.12 Z" fill="url(#paint2_linear_68_1118)"/>
<path d="M 138.72,145.27 L 97.71,217.16 L 112.71,241.49 C 120.04,253.38 136.76,252.39 143.61,240.53 L 192.29,155.74 L 190.11,150.13 C 181.15,128.66 150.15,126.98 138.72,145.27 Z" fill="url(#paint3_linear_68_1118)"/>
<defs>
<linearGradient id="paint0_linear_68_1118" x1="128.218" y1="5" x2="128.218" y2="250.716" gradientUnits="userSpaceOnUse">
<stop stop-color="#60A685"/>
<stop offset="1" stop-color="#003B1D"/>
</linearGradient>
<linearGradient id="paint1_linear_68_1118" x1="59.4884" y1="69.458" x2="59.4884" y2="182.823" gradientUnits="userSpaceOnUse">
<stop stop-color="#166B3B"/>
<stop offset="1" stop-color="#146B3B"/>
</linearGradient>
<linearGradient id="paint2_linear_68_1118" x1="155.54" y1="5" x2="155.54" y2="155.058" gradientUnits="userSpaceOnUse">
<stop stop-color="#60A685"/>
<stop offset="1" stop-color="#74C199"/>
</linearGradient>
<linearGradient id="paint3_linear_68_1118" x1="144.999" y1="130.911" x2="144.999" y2="250.16" gradientUnits="userSpaceOnUse">
<stop stop-color="#146B3B"/>
<stop offset="1" stop-color="#116B3A"/>
</linearGradient>
</defs>
</svg>